<svg xmlns="http://www.w3.org/2000/svg" width="520" height="140" viewBox="0 0 520 140">
  <defs>
    <linearGradient id="wordmark-light-bg" x1="140" y1="30" x2="196" y2="86" gradientUnits="userSpaceOnUse">
      <stop offset="0" stop-color="#0f172a" />
      <stop offset="0.55" stop-color="#1e293b" />
      <stop offset="1" stop-color="#0f766e" />
    </linearGradient>
    <linearGradient id="wordmark-light-page" x1="151" y1="47" x2="185" y2="73" gradientUnits="userSpaceOnUse">
      <stop offset="0" stop-color="#ffffff" />
      <stop offset="1" stop-color="#dbeafe" />
    </linearGradient>
  </defs>
  <g transform="translate(140, 30)">
    <rect width="56" height="56" rx="13" fill="url(#wordmark-light-bg)" />
    <path d="M10.8 42.8c4.9-3 10.8-3.4 17.1-1.1V17.5c-6.1-3.4-12.2-3.5-17.1-.4v25.7Z" fill="url(#wordmark-light-page)" />
    <path d="M45.2 42.8c-4.9-3-10.8-3.4-17.1-1.1V17.5c6.1-3.4 12.2-3.5 17.1-.4v25.7Z" fill="url(#wordmark-light-page)" opacity="0.9" />
    <path d="M28 11.6v33.5" fill="none" stroke="#67e8f9" stroke-width="2.6" stroke-linecap="round" />
    <circle cx="28" cy="15.8" r="3.2" fill="#0f172a" stroke="#67e8f9" stroke-width="2.2" />
    <path d="M22.8 34.7c1.7 4.3 5 6.7 5.2 6.7s3.8-2.5 5.5-6.7M21.4 34.7h13.7" fill="none" stroke="#facc15" stroke-width="2.7" stroke-linecap="round" stroke-linejoin="round" />
    <path d="M28 22.1 34.1 34.3 28 41.8 21.9 34.3 28 22.1Z" fill="#0f172a" stroke="#ffffff" stroke-width="2" stroke-linejoin="round" />
  </g>
  <text x="208" y="65" font-family="system-ui, -apple-system, sans-serif" font-size="46" font-weight="bold" fill="#111827">Novelist</text>
  <text x="208" y="92" font-family="system-ui, -apple-system, sans-serif" font-size="14" fill="#6b7280" font-weight="500">reference-anchored AI writing studio</text>
</svg>
