<svg xmlns="http://www.w3.org/2000/svg" viewBox="0 0 1000 1000" width="100%" height="100%" role="img" aria-label="Novelist">
  <defs>
    <linearGradient id="novelist-bg" x1="160" y1="120" x2="860" y2="900" gradientUnits="userSpaceOnUse">
      <stop offset="0" stop-color="#0f172a" />
      <stop offset="0.54" stop-color="#1e293b" />
      <stop offset="1" stop-color="#0f766e" />
    </linearGradient>
    <linearGradient id="novelist-page" x1="238" y1="286" x2="760" y2="746" gradientUnits="userSpaceOnUse">
      <stop offset="0" stop-color="#ffffff" />
      <stop offset="1" stop-color="#dbeafe" />
    </linearGradient>
    <linearGradient id="novelist-accent" x1="498" y1="214" x2="498" y2="806" gradientUnits="userSpaceOnUse">
      <stop offset="0" stop-color="#67e8f9" />
      <stop offset="1" stop-color="#facc15" />
    </linearGradient>
  </defs>

  <rect width="1000" height="1000" rx="210" fill="url(#novelist-bg)" />
  <path d="M192 764c88-54 193-61 306-19V313c-109-61-217-63-306-6v457Z" fill="url(#novelist-page)" opacity="0.96" />
  <path d="M808 764c-88-54-193-61-306-19V313c109-61 217-63 306-6v457Z" fill="url(#novelist-page)" opacity="0.88" />
  <path d="M500 313v432" fill="none" stroke="#0f172a" stroke-width="18" stroke-linecap="round" opacity="0.22" />
  <path d="M252 372c63-27 127-27 193 0M252 452c63-27 127-27 193 0M252 532c63-27 127-27 193 0" fill="none" stroke="#0f172a" stroke-width="22" stroke-linecap="round" opacity="0.22" />
  <path d="M555 372c63-27 127-27 193 0M555 452c63-27 127-27 193 0M555 532c63-27 127-27 193 0" fill="none" stroke="#0f172a" stroke-width="22" stroke-linecap="round" opacity="0.2" />

  <path d="M500 206v598" fill="none" stroke="url(#novelist-accent)" stroke-width="42" stroke-linecap="round" />
  <circle cx="500" cy="280" r="58" fill="#0f172a" stroke="#67e8f9" stroke-width="34" />
  <path d="M403 620c30 76 89 120 97 120s67-44 97-120" fill="none" stroke="#facc15" stroke-width="44" stroke-linecap="round" stroke-linejoin="round" />
  <path d="M378 620h244" fill="none" stroke="#facc15" stroke-width="44" stroke-linecap="round" />
  <path d="M500 395 608 612 500 746 392 612 500 395Z" fill="#0f172a" stroke="#ffffff" stroke-width="32" stroke-linejoin="round" />
  <path d="M500 474v164" fill="none" stroke="#67e8f9" stroke-width="30" stroke-linecap="round" />
  <circle cx="500" cy="638" r="22" fill="#facc15" />
</svg>
